Coordinates
version=1
nRows=9
nColumns=36
inDegrees=yes

Units are S.I. units (second, meters, Newtons, ...)
If the header above contains a line with 'inDegrees', this indicates whether rotational values are in degrees (yes) or radians (no).

endheader
time	pelvis_tilt	pelvis_list	pelvis_rotation	pelvis_tx	pelvis_ty	pelvis_tz	hip_flexion_r	hip_adduction_r	hip_rotation_r	knee_angle_r	knee_angle_r_beta	ankle_angle_r	subtalar_angle_r	mtp_angle_r	hip_flexion_l	hip_adduction_l	hip_rotation_l	knee_angle_l	knee_angle_l_beta	ankle_angle_l	subtalar_angle_l	mtp_angle_l	lumbar_extension	lumbar_bending	lumbar_rotation	arm_flex_r	arm_add_r	arm_rot_r	elbow_flex_r	pro_sup_r	arm_flex_l	arm_add_l	arm_rot_l	elbow_flex_l	pro_sup_l
      5.60000000	     -8.87520183	      4.92281476	      0.37277640	      0.04181829	      1.00857230	      0.10022779	     14.07798652	      2.81440696	      3.21286581	     11.46901113	      0.20017201	      5.97112242	    -15.56252249	     -7.49999987	     21.55027088	      0.42273387	      3.65092569	     25.37378380	      0.44285607	      5.85955174	     -6.88196373	     -7.49999987	     -4.15527574	      1.38501392	     -2.01341659	     51.03939515	      2.13137141	     71.61506957	    128.78846781	     83.52717502	     49.39577239	      1.45116978	     76.55894010	    123.26667938	     65.92904395
      5.61666670	     -9.09068430	      5.00898386	      0.40198766	      0.04142962	      1.00891382	      0.09939589	     14.34544414	      2.67403114	      3.17796836	     11.48568568	      0.20046303	      6.06425189	    -15.51639173	     -7.49999987	     21.78205012	      0.44488011	      3.63918948	     25.33960870	      0.44225960	      5.90878037	     -6.74027865	     -7.49999987	     -4.17812168	      1.41488614	     -2.13308434	     50.77708385	      2.11947954	     71.65169667	    128.94502538	     82.87311512	     49.16692638	      1.44254850	     76.63720305	    123.40516006	     65.72105005
      5.63333330	     -9.28127228	      5.05856299	      0.40605005	      0.04110223	      1.00496808	      0.09926538	     14.60099411	      2.61041269	      3.17464038	     11.49497708	      0.20062520	      6.44569222	    -15.52055541	     -7.49999987	     22.01662313	      0.38142561	      3.62119803	     25.38957332	      0.44313165	      6.41137025	     -6.51384555	     -7.49999987	     -4.20438570	      1.41789951	     -2.12465755	     50.46618644	      2.09445460	     71.21788449	    129.01188207	     86.99792945	     48.98939383	      1.55650980	     76.66840724	    123.45877411	     66.78353628
      5.65000000	     -9.62503569	      5.10974225	      0.41041580	      0.03945190	      1.00546666	      0.09905449	     15.05980016	      2.55022526	      3.23260251	     11.57220427	      0.20197307	      6.53007163	    -15.62363978	     -7.49999987	     22.41768363	      0.35000931	      3.67903363	     25.40865358	      0.44346466	      6.65914046	     -6.27752265	     -7.49999987	     -4.12218074	      1.47265687	     -2.18159361	     50.28321465	      2.16690921	     71.32013889	    129.12499069	     85.99575267	     48.73665614	      1.55410855	     76.75434942	    123.65219762	     66.44010829
      5.66666670	     -9.75609748	      5.18546485	      0.39775245	      0.03768131	      1.00550312	      0.09874498	     15.36030382	      2.47315482	      3.32619360	     11.65213521	      0.20336812	      6.73191797	    -15.62950435	     -7.49999987	     22.73646353	      0.34154867	      3.79792080	     25.64271997	      0.44754989	      7.01245734	     -5.96504438	     -7.49999987	     -4.32138667	      1.52350020	     -2.19491552	     50.17538992	      2.16736704	     71.31196967	    129.06215103	     85.03443826	     48.55425427	      1.62169577	     76.84956994	    123.75862878	     66.13852241
      5.68333330	    -10.01428880	      5.23467038	      0.49275791	      0.03757509	      1.00466106	      0.09800431	     15.63669227	      2.38653396	      3.41578305	     11.56087616	      0.20177535	      7.00988263	    -15.42076840	     -7.49999987	     23.05500124	      0.35565141	      4.05657838	     25.67027287	      0.44803078	      7.54467148	     -5.79055257	     -7.49999987	     -4.35744117	      1.54442479	     -2.37576300	     50.01548136	      2.18177110	     71.23415731	    129.09379346	     84.41891801	     48.31518982	      1.66580419	     76.78963746	    123.82561667	     66.00483824
      5.70000000	    -10.20972191	      5.25157168	      0.54395141	      0.03691764	      1.00302724	      0.09778772	     15.83125746	      2.35430000	      3.56357494	     11.47827577	      0.20033370	      7.20784974	    -15.49885611	     -7.49999987	     23.31526596	      0.34545056	      4.26846719	     25.69097860	      0.44839216	      7.94777723	     -5.67429886	     -7.49999987	     -4.48929337	      1.61891359	     -2.54218506	     49.85738653	      2.20551229	     71.15405784	    128.99382097	     83.77524395	     48.12679275	      1.64392863	     76.68181668	    123.82631594	     65.94425537
      5.71666670	    -10.54081194	      5.27448057	      0.62074469	      0.03660830	      1.00481583	      0.09824077	     16.09865478	      2.35542707	      3.79727587	     11.33002511	      0.19774624	      7.11820463	    -15.65704164	     -7.49999987	     23.57910947	      0.33879796	      4.53722893	     25.50081347	      0.44507316	      8.15942046	     -5.41363741	     -7.49999987	     -4.40730581	      1.64501774	     -2.63044992	     49.47720759	      2.19524340	     70.88205442	    128.88797825	     86.75386858	     47.82579158	      1.69270109	     76.64286302	    123.88752634	     67.07786760
      5.73333330	    -10.92951058	      5.28960881	      0.80560342	      0.03649001	      1.00275453	      0.09769789	     16.46082174	      2.29078332	      3.68911937	     11.23415920	      0.19607307	      7.39835692	    -15.28164908	     -7.49999987	     23.95909046	      0.37751552	      4.67531728	     25.44043842	      0.44401941	      8.28619996	     -5.27388175	     -7.49999987	     -4.20103999	      1.74017130	     -2.80862507	     49.13715412	      2.23609314	     70.85715265	    129.01317885	     85.24487659	     47.53072189	      1.69206063	     76.63498086	    124.12911022	     66.69566787
